<svg width="204" height="178" viewBox="0 0 204 178" fill="none" xmlns="http://www.w3.org/2000/svg">
<path fill-rule="evenodd" clip-rule="evenodd" d="M144.667 174.035C139.443 178.415 132.065 176.968 127.642 171.681L113.591 154.885C107.928 148.116 97.9878 148.116 92.3248 154.885L77.1175 173.063C72.8062 178.217 65.6689 179.746 60.4336 175.676C43.0544 162.167 31.7633 140.311 31.7633 115.647C31.7633 74.6241 63.0007 41.3685 101.534 41.3685C140.067 41.3685 171.305 74.6241 171.305 115.647C171.305 139.336 160.889 160.434 144.667 174.035ZM93.6578 140.582C97.8463 145.858 105.222 145.858 109.411 140.582L122.598 123.968C126.831 118.635 124.648 110.194 118.521 108.204C107.426 104.601 95.642 104.601 84.5471 108.204C78.4201 110.194 76.2373 118.635 80.4705 123.968L93.6578 140.582ZM80.8614 88.7712C80.8614 94.9311 76.2336 99.9248 70.525 99.9248C64.8163 99.9248 60.1886 94.9311 60.1886 88.7712C60.1886 82.6112 64.8163 77.6176 70.525 77.6176C76.2336 77.6176 80.8614 82.6112 80.8614 88.7712ZM132.543 99.9248C138.252 99.9248 142.88 94.9311 142.88 88.7712C142.88 82.6112 138.252 77.6176 132.543 77.6176C126.835 77.6176 122.207 82.6112 122.207 88.7712C122.207 94.9311 126.835 99.9248 132.543 99.9248Z" fill="#6493B5"/>
<path d="M16.9172 16.7499C16.4435 14.733 18.8113 13.2579 20.1932 14.709L53.5147 49.699C54.4085 50.6376 54.1868 52.2488 53.0679 52.9458L31.1678 66.5895C30.0489 67.2866 28.6449 66.6881 28.3385 65.3836L16.9172 16.7499Z" fill="#6493B5"/>
<path d="M183.235 14.7322C184.617 13.2811 186.985 14.7562 186.511 16.7732L175.09 65.4068C174.784 66.7114 173.38 67.3098 172.261 66.6128L150.361 52.9691C149.242 52.272 149.02 50.6608 149.914 49.7223L183.235 14.7322Z" fill="#6493B5"/>
</svg>
