<svg width="80" height="72" viewBox="0 0 80 72" fill="none" xmlns="http://www.w3.org/2000/svg">
<path d="M60.39 31.8673C49.6077 31.8673 40.7813 40.6338 40.7813 51.476C40.7813 62.2819 49.5718 71.0846 60.39 71.0846C68.1677 71.0846 74.9842 66.5384 78.1479 59.801C78.5163 59.0168 78.179 58.0827 77.3948 57.7143C76.6106 57.3459 75.6763 57.6833 75.308 58.4676C74.4937 60.2018 73.3918 61.7497 72.078 63.0683C65.3245 57.0796 55.5605 56.9722 48.6908 63.0584C42.3323 56.6365 42.3221 46.3255 48.6908 39.8932C55.4872 45.9093 65.2519 45.9433 72.0793 39.8833C75.5149 43.3473 77.2335 48.1103 76.794 52.9576C76.7157 53.8204 77.3517 54.5834 78.2145 54.6617C79.0771 54.7426 79.8403 54.104 79.9185 53.2412C80.9594 41.7726 71.8868 31.8673 60.39 31.8673ZM69.6299 65.0957C64.0157 68.9007 56.7084 68.8957 51.1317 65.0919C56.6444 60.4952 64.1985 60.5692 69.6299 65.0957ZM51.1322 37.8595C56.6893 34.0694 64.0325 34.0363 69.6367 37.8518C64.128 42.4545 56.5694 42.3871 51.1322 37.8595Z" fill="#DA5461"/>
<path d="M30.8351 45.5224C30.1818 44.9535 29.1908 45.0219 28.622 45.6756L23.963 51.0264C23.493 51.5662 23.448 52.3557 23.8537 52.9454C25.8106 55.7911 25.5918 59.6001 23.3214 62.2082C20.5774 65.3595 15.7816 65.6913 12.6303 62.9474C11.6285 62.0756 10.8716 60.9507 10.4412 59.6944C10.2593 59.1634 9.80756 58.7699 9.25648 58.6629C7.95305 58.4096 6.73527 57.8149 5.73428 56.9427C2.58309 54.2002 2.25162 49.404 4.99464 46.2522C7.26659 43.6438 11.0101 42.9032 14.0978 44.4502C14.7375 44.771 15.5134 44.6176 15.9835 44.0778L30.4971 27.4087C31.066 26.7554 30.9973 25.7646 30.344 25.1956C29.6906 24.6268 28.6998 24.6952 28.1309 25.3487L14.3679 41.1554C10.2479 39.6544 5.56722 40.8179 2.62858 44.1916C-1.25064 48.649 -0.781447 55.4305 3.6738 59.3085C4.86664 60.3476 6.27752 61.1087 7.79508 61.5371C9.45962 65.3335 13.2356 67.943 17.5988 67.9424C20.5925 67.9422 23.5718 66.6978 25.6876 64.2679C28.6242 60.8942 29.1328 56.0987 27.0794 52.2245L30.9881 47.7356C31.5572 47.0822 31.4885 46.0913 30.8351 45.5224ZM59.9233 8.6327C58.7295 7.59375 57.3182 6.83278 55.8011 6.40452C55.1683 4.96085 54.2208 3.66778 53.0273 2.62789C48.5713 -1.25039 41.789 -0.781354 37.9087 3.67358C34.9716 7.04753 34.4627 11.8429 36.5166 15.7172L32.2502 20.6188C31.6814 21.2723 31.75 22.2631 32.4035 22.8319C33.057 23.4006 34.0478 23.3322 34.6166 22.6785L39.6332 16.9151C40.103 16.3753 40.1478 15.5859 39.7423 14.9963C37.7854 12.1507 38.0044 8.34171 40.2744 5.73391C43.0192 2.58303 47.8158 2.25172 50.9667 4.99364C51.9678 5.86599 52.7245 6.99122 53.1548 8.24743C53.3366 8.77843 53.7884 9.17186 54.3395 9.27884C55.6429 9.53219 56.8613 10.127 57.8631 10.9989C61.0134 13.7418 61.3444 18.5381 58.6012 21.6896C56.3294 24.2978 52.5867 25.0391 49.4999 23.4917C48.8602 23.1709 48.0842 23.3242 47.6139 23.8638L32.7411 40.9437C32.1723 41.5971 32.2407 42.5881 32.894 43.157C33.5458 43.7246 34.5371 43.6588 35.1073 43.0041L49.2293 26.786C53.3483 28.2877 58.0283 27.1237 60.9673 23.7497C64.8466 19.2931 64.3782 12.5116 59.9233 8.6327Z" fill="#6963B4"/>
</svg>
