<svg width="22" height="22" viewBox="0 0 22 22" fill="none" xmlns="http://www.w3.org/2000/svg">
<path d="M9.9939 5C11.0985 5 11.9939 4.10457 11.9939 3C11.9939 1.89543 11.0985 1 9.9939 1C8.88933 1 7.9939 1.89543 7.9939 3C7.9939 4.10457 8.88933 5 9.9939 5Z" stroke="white" stroke-width="2" stroke-linecap="round" stroke-linejoin="round"/>
<path d="M16.9939 9C18.0985 9 18.9939 8.10457 18.9939 7C18.9939 5.89543 18.0985 5 16.9939 5C15.8893 5 14.9939 5.89543 14.9939 7C14.9939 8.10457 15.8893 9 16.9939 9Z" stroke="white" stroke-width="2" stroke-linecap="round" stroke-linejoin="round"/>
<path d="M18.9939 17C20.0985 17 20.9939 16.1046 20.9939 15C20.9939 13.8954 20.0985 13 18.9939 13C17.8893 13 16.9939 13.8954 16.9939 15C16.9939 16.1046 17.8893 17 18.9939 17Z" stroke="white" stroke-width="2" stroke-linecap="round" stroke-linejoin="round"/>
<path d="M7.99389 9C8.6505 9 9.30068 9.12933 9.90731 9.3806C10.5139 9.63188 11.0651 10.0002 11.5294 10.4645C11.9937 10.9288 12.362 11.48 12.6133 12.0866C12.8646 12.6932 12.9939 13.3434 12.9939 14V17.5C12.9936 18.3365 12.6938 19.1452 12.1487 19.7796C11.6036 20.4141 10.8493 20.8324 10.0225 20.9587C9.19561 21.085 8.35084 20.9111 7.64118 20.4683C6.93152 20.0255 6.4039 19.3432 6.15389 18.545C5.72722 17.1683 4.82722 16.2667 3.45389 15.84C2.65607 15.5901 1.97406 15.0629 1.53125 14.3538C1.08845 13.6446 0.914105 12.8004 1.03978 11.9739C1.16545 11.1473 1.58283 10.3931 2.2164 9.84762C2.84996 9.30214 3.65786 9.00146 4.49389 9H7.99389Z" stroke="white" stroke-width="2" stroke-linecap="round" stroke-linejoin="round"/>
</svg>
