<svg width="64" height="54" viewBox="0 0 64 54" fill="none" xmlns="http://www.w3.org/2000/svg">
<path d="M52.1846 7.52594C51.6263 7.19231 51.2172 6.69118 51.0329 6.11483C49.3592 0.88248 43.4698 -1.42832 38.7519 0.92693C38.0601 1.27249 37.2342 1.27261 36.5423 0.92693C33.3608 -0.661233 29.5676 -0.180188 26.8788 2.15258C26.2365 2.70985 25.3768 2.93172 24.5801 2.74626C21.3508 1.99449 18.0151 3.10412 15.8746 5.64245C15.5156 6.06849 15.0256 6.36458 14.4951 6.47646C10.4589 7.32704 7.52942 10.9432 7.52942 15.0747C7.52942 15.7681 8.09124 16.3304 8.78432 16.3304C9.47728 16.3304 10.0392 15.7681 10.0392 15.0747C10.0392 12.1238 12.1308 9.54115 15.0124 8.93367C16.0875 8.70702 17.075 8.11321 17.7928 7.26175C19.3221 5.44832 21.7047 4.65499 24.0113 5.19229C25.589 5.55907 27.2754 5.13227 28.5228 4.05001C30.4428 2.384 33.1508 2.04045 35.4217 3.17406C36.8151 3.8697 38.4789 3.86958 39.8724 3.17406C43.2345 1.496 47.4458 3.13878 48.6425 6.88028C49.0133 8.03951 49.8143 9.03462 50.8981 9.68229C52.8158 10.828 53.9608 12.8439 53.9608 15.0747C53.9608 15.7681 54.5227 16.3304 55.2157 16.3304C55.9087 16.3304 56.4706 15.7681 56.4706 15.0747C56.4706 11.9979 54.8283 9.10544 52.1846 7.52594ZM42.0392 25.1346C39.9492 25.1346 38.1328 26.4046 37.3835 28.2738H26.6164C25.8671 26.4046 24.0508 25.1346 21.9608 25.1346C19.193 25.1346 16.9412 27.3878 16.9412 30.1573C16.9412 30.8043 17.0667 31.4447 17.3077 32.0407C17.0667 32.6368 16.9412 33.2771 16.9412 33.9242C16.9412 36.6937 19.193 38.9469 21.9608 38.9469C24.0508 38.9469 25.8672 37.6769 26.6164 35.8077H37.3835C38.1328 37.6769 39.9491 38.9469 42.0392 38.9469C44.807 38.9469 47.0588 36.6937 47.0588 33.9242C47.0588 33.2771 46.9333 32.6368 46.6923 32.0407C46.9333 31.4447 47.0588 30.8043 47.0588 30.1573C47.0588 27.3878 44.807 25.1346 42.0392 25.1346ZM44.213 32.6698C44.4328 33.0498 44.549 33.4836 44.549 33.9242C44.549 35.309 43.4231 36.4356 42.0392 36.4356C40.8089 36.4356 39.7684 35.556 39.5652 34.3443C39.4637 33.7395 38.9404 33.2964 38.3276 33.2964H25.6724C25.0595 33.2964 24.5362 33.7394 24.4348 34.3443C24.2317 35.556 23.1911 36.4356 21.9608 36.4356C20.5769 36.4356 19.451 35.309 19.451 33.9242C19.451 33.4836 19.5672 33.0498 19.7871 32.6698C20.0122 32.2807 20.0122 31.8009 19.7872 31.4118C19.5672 31.0316 19.451 30.5979 19.451 30.1573C19.451 28.7725 20.5769 27.6459 21.9608 27.6459C23.1911 27.6459 24.2317 28.5255 24.4348 29.7372C24.5364 30.342 25.0596 30.7851 25.6724 30.7851H38.3276C38.9405 30.7851 39.4638 30.3421 39.5652 29.7372C39.7684 28.5255 40.8089 27.6459 42.0392 27.6459C43.4231 27.6459 44.549 28.7725 44.549 30.1573C44.549 30.5979 44.4328 31.0316 44.2128 31.4118C43.9878 31.8008 43.9878 32.2807 44.213 32.6698Z" fill="#DA5461"/>
<path d="M60.0148 42.9469L57.8315 21.0971C59.2365 20.5499 60.2353 19.1828 60.2353 17.5858C60.2353 15.5046 58.5506 13.8188 56.4706 13.8188H7.52941C5.45355 13.8188 3.76471 15.5087 3.76471 17.5858C3.76471 19.1941 4.76825 20.5558 6.16822 21.0988L3.98494 42.9492C1.67981 43.661 0 45.8125 0 48.3496C0 51.4728 2.52524 54 5.64706 54H43.2941C43.9871 54 44.549 53.4378 44.549 52.7444C44.549 52.051 43.9871 51.4887 43.2941 51.4887H5.64706C3.91278 51.4887 2.5098 50.0853 2.5098 48.3496C2.5098 46.6186 3.91718 45.2104 5.64706 45.2104H58.3529C60.0872 45.2104 61.4902 46.6138 61.4902 48.3496C61.4902 50.0805 60.0828 51.4887 58.3529 51.4887H48.3137C47.6208 51.4887 47.0588 52.051 47.0588 52.7444C47.0588 53.4378 47.6208 54 48.3137 54H58.3529C61.4669 54 64 51.4654 64 48.3496C64 45.7856 62.3014 43.6479 60.0148 42.9469ZM24.3865 21.3528H55.3349L57.4679 42.6991H6.53214L8.6651 21.3528H19.3669C20.0599 21.3528 20.6218 20.7906 20.6218 20.0971C20.6218 19.4036 20.0599 18.8415 19.3669 18.8415H7.52941C6.83671 18.8415 6.27451 18.2791 6.27451 17.5858C6.27451 16.8934 6.83746 16.3302 7.52941 16.3302H56.4706C57.1633 16.3302 57.7255 16.8926 57.7255 17.5858C57.7255 18.2782 57.1625 18.8415 56.4706 18.8415H24.3865C23.6934 18.8415 23.1316 19.4036 23.1316 20.0971C23.1316 20.7906 23.6936 21.3528 24.3865 21.3528Z" fill="#6963B4"/>
</svg>
