<svg viewBox="0 0 80 70" fill="none" xmlns="http://www.w3.org/2000/svg">
<path fill-rule="evenodd" clip-rule="evenodd" d="M56.8914 68.4407C54.8371 70.1632 51.9356 69.5941 50.1964 67.5152L44.6706 60.91C42.4436 58.2479 38.5345 58.2479 36.3075 60.91L30.3271 68.0586C28.6317 70.0853 25.8248 70.6865 23.766 69.0861C16.9315 63.7734 12.4912 55.1783 12.4912 45.4792C12.4912 29.3466 24.7756 16.2685 39.9291 16.2685C55.0827 16.2685 67.3671 29.3466 67.3671 45.4792C67.3671 54.7949 63.2709 63.0921 56.8914 68.4407ZM36.8317 55.2849C38.4789 57.36 41.3794 57.36 43.0266 55.2849L48.2126 48.7514C49.8774 46.6541 49.019 43.3348 46.6095 42.5522C42.2463 41.1351 37.612 41.1351 33.2488 42.5522C30.8393 43.3348 29.9809 46.6541 31.6457 48.7514L36.8317 55.2849ZM31.7994 34.91C31.7994 37.3325 29.9795 39.2963 27.7345 39.2963C25.4895 39.2963 23.6696 37.3325 23.6696 34.91C23.6696 32.4876 25.4895 30.5238 27.7345 30.5238C29.9795 30.5238 31.7994 32.4876 31.7994 34.91ZM52.1238 39.2963C54.3687 39.2963 56.1886 37.3325 56.1886 34.91C56.1886 32.4876 54.3687 30.5238 52.1238 30.5238C49.8788 30.5238 48.0589 32.4876 48.0589 34.91C48.0589 37.3325 49.8788 39.2963 52.1238 39.2963Z" fill="#6493B5"/>
<path d="M7.68945 11.0011C7.21579 8.98414 9.58352 7.50906 10.9654 8.96016L19.9686 18.4141C20.8624 19.3527 20.6407 20.9639 19.5218 21.661L13.6046 25.3473C12.4857 26.0444 11.0818 25.446 10.7754 24.1414L7.68945 11.0011Z" fill="#6493B5"/>
<path d="M69.0346 8.9693C70.4165 7.5182 72.7842 8.99329 72.3106 11.0102L69.2246 24.1506C68.9183 25.4551 67.5143 26.0535 66.3954 25.3565L60.4782 21.6701C59.3594 20.9731 59.1377 19.3618 60.0315 18.4233L69.0346 8.9693Z" fill="#6493B5"/>
</svg>
