<svg width="402" height="492" viewBox="0 0 402 492" xmlns="http://www.w3.org/2000/svg">
<path d="M259.368 242.006C221.173 232.483 180.827 232.483 142.734 242.006C119.182 247.946 102.696 268.938 102.696 293.206C102.696 309.59 110.069 324.746 122.971 334.781C135.874 344.918 152.36 348.4 168.232 344.406L193.013 338.262C198.235 336.931 203.765 336.931 208.987 338.262L233.666 344.406C237.966 345.43 242.267 346.045 246.568 346.045C258.242 346.045 269.506 342.154 278.926 334.781C291.829 324.746 299.202 309.488 299.202 293.206C299.304 268.938 282.92 247.946 259.368 242.006ZM266.843 319.216C258.754 325.462 248.514 327.715 238.581 325.258L213.902 319.114C205.506 316.963 196.597 316.963 188.302 319.114L163.624 325.258C153.691 327.715 143.349 325.565 135.362 319.216C127.272 312.97 122.664 303.446 122.664 293.206C122.664 278.051 132.904 264.944 147.65 261.258C182.67 252.554 219.739 252.554 254.76 261.258C269.506 264.944 279.746 278.051 279.746 293.206C279.541 303.446 274.83 312.97 266.843 319.216ZM144.578 198.998C144.578 178.314 127.784 161.418 106.997 161.418C86.2096 161.418 69.416 178.211 69.416 198.998C69.416 219.786 86.2096 236.579 106.997 236.579C127.784 236.579 144.578 219.683 144.578 198.998ZM89.2816 198.998C89.2816 189.27 97.2688 181.283 106.997 181.283C116.725 181.283 124.712 189.27 124.712 198.998C124.712 208.726 116.725 216.714 106.997 216.714C97.2688 216.714 89.2816 208.726 89.2816 198.998ZM295.003 161.418C274.318 161.418 257.422 178.211 257.422 198.998C257.422 219.786 274.318 236.579 295.003 236.579C315.688 236.579 332.584 219.786 332.584 198.998C332.584 178.211 315.688 161.418 295.003 161.418ZM295.003 216.714C285.275 216.714 277.288 208.726 277.288 198.998C277.288 189.27 285.275 181.283 295.003 181.283C304.731 181.283 312.718 189.27 312.718 198.998C312.718 208.726 304.731 216.714 295.003 216.714ZM201 214.461C224.757 214.461 244.11 195.107 244.11 171.35C244.11 147.594 224.757 128.24 201 128.24C177.243 128.24 157.89 147.594 157.89 171.35C157.89 195.107 177.243 214.461 201 214.461ZM201 148.106C213.8 148.106 224.245 158.55 224.245 171.35C224.245 184.15 213.8 194.595 201 194.595C188.2 194.595 177.755 184.15 177.755 171.35C177.755 158.55 188.2 148.106 201 148.106Z"/>
<path d="M376.923 54.4096L210.011 1.6736C204.174 -0.169601 197.928 -0.169601 192.091 1.6736L25.0767 54.4096C10.4335 59.0176 0.603149 72.432 0.603149 87.792V237.296C0.603149 321.571 43.3039 398.576 114.779 443.325L185.23 487.357C190.043 490.326 195.47 491.862 201 491.862C206.53 491.862 211.957 490.326 216.77 487.357L287.221 443.325C358.696 398.576 401.397 321.571 401.397 237.194V87.6896C401.397 72.432 391.566 59.0176 376.923 54.4096ZM381.531 237.194C381.531 314.608 342.312 385.366 276.674 426.326L206.222 470.358C203.048 472.406 198.85 472.304 195.675 470.358L125.224 426.326C59.6879 385.366 20.4687 314.608 20.4687 237.194V87.6896C20.4687 81.0336 24.7696 75.1968 31.016 73.2512L198.03 20.5152C198.952 20.208 199.976 20.0032 201 20.0032C202.024 20.0032 203.048 20.1056 203.97 20.5152L370.984 73.2512C377.333 75.2992 381.531 81.0336 381.531 87.6896V237.194Z" />
</svg>
