<svg width="24" height="24" viewBox="0 0 24 24" xmlns="http://www.w3.org/2000/svg">
<g clip-path="url(#clip0_141_23)">
<path d="M7 7V5C7 3.89543 7.89543 3 9 3C10.1046 3 11 3.89543 11 5V7C11 8.10457 10.1046 9 9 9C7.89543 9 7 8.10457 7 7ZM15 9C16.1046 9 17 8.10457 17 7V5C17 3.89543 16.1046 3 15 3C13.8954 3 13 3.89543 13 5V7C13 8.10457 13.8954 9 15 9ZM7 12V11C7 9.89543 6.10457 9 5 9C3.89543 9 3 9.89543 3 11V12C3 13.1046 3.89543 14 5 14C6.10457 14 7 13.1046 7 12ZM19 9C17.8954 9 17 9.89543 17 11V12C17 13.1046 17.8954 14 19 14C20.1046 14 21 13.1046 21 12V11C21 9.89543 20.1046 9 19 9ZM16.8 15.8C16.2701 15.2737 15.8278 14.666 15.49 14L14.55 12.13C14.2179 11.4426 13.5234 11.0042 12.76 11H11.24C10.4811 11.0004 9.78773 11.4303 9.45 12.11L8.51 14C8.17215 14.666 7.72989 15.2737 7.2 15.8L5.59 17.41C5.21196 17.7858 4.99958 18.297 5 18.83V19C5 20.1046 5.89543 21 7 21H17C18.1046 21 19 20.1046 19 19V18.83C19.0004 18.297 18.788 17.7858 18.41 17.41L16.8 15.8Z"/>
</g>
<defs>
<clipPath id="clip0_141_23">
<rect width="24" height="24"/>
</clipPath>
</defs>
</svg>
