<svg width="30" height="34" viewBox="0 0 30 34" xmlns="http://www.w3.org/2000/svg">
<path d="M11.6667 26.6667C12.1087 26.6667 12.5326 26.4911 12.8452 26.1785C13.1577 25.866 13.3333 25.442 13.3333 25V15C13.3333 14.558 13.1577 14.134 12.8452 13.8215C12.5326 13.5089 12.1087 13.3333 11.6667 13.3333C11.2246 13.3333 10.8007 13.5089 10.4882 13.8215C10.1756 14.134 10 14.558 10 15V25C10 25.442 10.1756 25.866 10.4882 26.1785C10.8007 26.4911 11.2246 26.6667 11.6667 26.6667ZM28.3333 6.66667H21.6667V5C21.6667 3.67392 21.1399 2.40215 20.2022 1.46447C19.2645 0.526784 17.9927 0 16.6667 0H13.3333C12.0073 0 10.7355 0.526784 9.7978 1.46447C8.86012 2.40215 8.33333 3.67392 8.33333 5V6.66667H1.66667C1.22464 6.66667 0.800716 6.84226 0.488155 7.15482C0.175595 7.46738 0 7.89131 0 8.33333C0 8.77536 0.175595 9.19928 0.488155 9.51184C0.800716 9.8244 1.22464 10 1.66667 10H3.33333V28.3333C3.33333 29.6594 3.86012 30.9312 4.7978 31.8689C5.73548 32.8065 7.00725 33.3333 8.33333 33.3333H21.6667C22.9927 33.3333 24.2645 32.8065 25.2022 31.8689C26.1399 30.9312 26.6667 29.6594 26.6667 28.3333V10H28.3333C28.7754 10 29.1993 9.8244 29.5118 9.51184C29.8244 9.19928 30 8.77536 30 8.33333C30 7.89131 29.8244 7.46738 29.5118 7.15482C29.1993 6.84226 28.7754 6.66667 28.3333 6.66667ZM11.6667 5C11.6667 4.55797 11.8423 4.13405 12.1548 3.82149C12.4674 3.50893 12.8913 3.33333 13.3333 3.33333H16.6667C17.1087 3.33333 17.5326 3.50893 17.8452 3.82149C18.1577 4.13405 18.3333 4.55797 18.3333 5V6.66667H11.6667V5ZM23.3333 28.3333C23.3333 28.7754 23.1577 29.1993 22.8452 29.5118C22.5326 29.8244 22.1087 30 21.6667 30H8.33333C7.89131 30 7.46738 29.8244 7.15482 29.5118C6.84226 29.1993 6.66667 28.7754 6.66667 28.3333V10H23.3333V28.3333ZM18.3333 26.6667C18.7754 26.6667 19.1993 26.4911 19.5118 26.1785C19.8244 25.866 20 25.442 20 25V15C20 14.558 19.8244 14.134 19.5118 13.8215C19.1993 13.5089 18.7754 13.3333 18.3333 13.3333C17.8913 13.3333 17.4674 13.5089 17.1548 13.8215C16.8423 14.134 16.6667 14.558 16.6667 15V25C16.6667 25.442 16.8423 25.866 17.1548 26.1785C17.4674 26.4911 17.8913 26.6667 18.3333 26.6667Z"/>
</svg>
