<svg viewBox="0 0 21 20" xmlns="http://www.w3.org/2000/svg">
<path d="M8.92772 0.0247391C4.13234 0.0247391 0.231445 3.90878 0.231445 8.68343C0.231445 13.4581 4.13234 17.3421 8.92772 17.3421C10.3937 17.3421 11.8348 16.9958 13.0522 16.3278C13.1498 16.4447 13.2579 16.5523 13.3752 16.6494L15.8599 19.1233C16.0893 19.3804 16.3691 19.588 16.682 19.7335C16.995 19.879 17.3345 19.9593 17.6797 19.9694C18.0249 19.9795 18.3686 19.9193 18.6895 19.7923C19.0105 19.6654 19.3021 19.4745 19.5463 19.2314C19.7905 18.9882 19.9822 18.6979 20.1097 18.3783C20.2372 18.0587 20.2977 17.7166 20.2875 17.3728C20.2773 17.0291 20.1967 16.6911 20.0506 16.3795C19.9045 16.0679 19.6959 15.7893 19.4378 15.5609L16.9531 13.087C16.8321 12.9664 16.6989 12.8587 16.5556 12.7654C17.2264 11.5532 17.6488 10.143 17.6488 8.65869C17.6488 3.88404 13.7479 0 8.95256 0L8.92772 0.0247391ZM8.92772 2.49865C12.3814 2.49865 15.1393 5.24469 15.1393 8.68343C15.1393 10.3162 14.543 11.8253 13.4995 12.9386C13.4746 12.9633 13.4498 12.988 13.4249 13.0128C13.3076 13.1099 13.1994 13.2175 13.1019 13.3344C12.0087 14.3239 10.5179 14.8929 8.90287 14.8929C5.44921 14.8929 2.69125 12.1469 2.69125 8.70817C2.69125 5.26943 5.44921 2.52339 8.90287 2.52339L8.92772 2.49865Z"/>
</svg>
